<svg xmlns="http://www.w3.org/2000/svg" version="1.1" xmlns:xlink="http://www.w3.org/1999/xlink" xmlns:svgjs="http://svgjs.com/svgjs" width="1440" height="560" preserveAspectRatio="none" viewBox="0 0 1440 560"><g mask="url(&quot;#SvgjsMask1001&quot;)" fill="none"><path d="M42.61 367.14a30.62 30.62 0 1 0-56.69-23.16z" fill="#037b0b"></path><path d="M1163.87 329.37a14.54 14.54 0 1 0 24.48-15.7z" stroke="#d3b714"></path><path d="M1296.11 191.23L1299.9 191.23L1299.9 224.69L1296.11 224.69z" stroke="#037b0b"></path><path d="M428.17 178.98a55.58 55.58 0 1 0-106.09-33.16z" stroke="#e73635"></path><path d="M313.76 394.88L362.59 394.88L362.59 412.07L313.76 412.07z" stroke="#d3b714"></path><path d="M639.91 386.94 a55.11 55.11 0 1 0 110.22 0 a55.11 55.11 0 1 0 -110.22 0z" stroke="#d3b714"></path><path d="M1199.22 359.52L1214.8 359.52L1214.8 407.38L1199.22 407.38z" fill="#d3b714"></path><path d="M1268.55 383.54L1314.58 383.54L1314.58 429.57L1268.55 429.57z" stroke="#e73635"></path><path d="M791 30.81L832.98 30.81L832.98 72.79L791 72.79z" fill="#d3b714"></path><path d="M1223.18 368.36L1275.13 368.36L1275.13 385.69L1223.18 385.69z" stroke="#037b0b"></path><path d="M1035.05 484.81 a37.9 37.9 0 1 0 75.8 0 a37.9 37.9 0 1 0 -75.8 0z" fill="#037b0b"></path><path d="M1075.48 557.15L1109.55 557.15L1109.55 598.45L1075.48 598.45z" fill="#e73635"></path><path d="M26.63 250.43 a51.34 51.34 0 1 0 102.68 0 a51.34 51.34 0 1 0 -102.68 0z" stroke="#d3b714"></path><path d="M1286.12 352.87a10.65 10.65 0 1 0 16.8 13.09z" stroke="#037b0b"></path><path d="M652.36 205.59L694.59 205.59L694.59 247.82L652.36 247.82z" fill="#e73635"></path><path d="M653.56 25.43L687.11 25.43L687.11 58.98L653.56 58.98z" fill="#e73635"></path><path d="M1349.01 231.85L1402.52 231.85L1402.52 285.36L1349.01 285.36z" stroke="#e73635"></path><path d="M665.77 203.22L719.64 203.22L719.64 257.09L665.77 257.09z" fill="#037b0b"></path><path d="M191.07 350.62 a45.7 45.7 0 1 0 91.4 0 a45.7 45.7 0 1 0 -91.4 0z" fill="#d3b714"></path><path d="M131.42 539.39 a34.38 34.38 0 1 0 68.76 0 a34.38 34.38 0 1 0 -68.76 0z" stroke="#e73635"></path><path d="M382.64 155.81L412.27 155.81L412.27 163.29L382.64 163.29z" stroke="#037b0b"></path><path d="M613 505 a1.37 1.37 0 1 0 2.74 0 a1.37 1.37 0 1 0 -2.74 0z" fill="#d3b714"></path><path d="M82.84 330.23a21.13 21.13 0 1 0 14.44-39.72z" stroke="#e73635"></path><path d="M1151.93 265.14a13.94 13.94 0 1 0 12.18-25.08z" fill="#037b0b"></path><path d="M565.3 369.66a13.89 13.89 0 1 0-26.22-9.17z" stroke="#e73635"></path><path d="M1426.03 351.28L1435.4 351.28L1435.4 360.65L1426.03 360.65z" stroke="#e73635"></path><path d="M1172.9 258.09 a29.12 29.12 0 1 0 58.24 0 a29.12 29.12 0 1 0 -58.24 0z" stroke="#037b0b"></path><path d="M293.26 83.76 a18.9 18.9 0 1 0 37.8 0 a18.9 18.9 0 1 0 -37.8 0z" fill="#d3b714"></path><path d="M1143.99 354.75 a43.08 43.08 0 1 0 86.16 0 a43.08 43.08 0 1 0 -86.16 0z" fill="#e73635"></path><path d="M872.21 180.79L901.47 180.79L901.47 210.05L872.21 210.05z" stroke="#037b0b"></path><path d="M877.37 11.99a12.22 12.22 0 1 0-20.73 12.94z" fill="#d3b714"></path><path d="M101.9 269.65 a37.9 37.9 0 1 0 75.8 0 a37.9 37.9 0 1 0 -75.8 0z" fill="#e73635"></path><path d="M1056.13 10.22a17.51 17.51 0 1 0 30.36-17.45z" stroke="#d3b714"></path></g><defs><mask id="SvgjsMask1001"><rect width="1440" height="560" fill="#ffffff"></rect></mask></defs></svg>